<svg width="24" height="24" viewBox="0 0 24 24" fill="#C53735" xmlns="http://www.w3.org/2000/svg">
<path d="M20.1598 5.00001C19.0998 3.93722 17.6946 3.28855 16.1981 3.17118C14.7017 3.05381 13.2126 3.47548 11.9998 4.36001C10.7274 3.41365 9.14378 2.98452 7.56771 3.15905C5.99164 3.33358 4.54023 4.09879 3.50576 5.3006C2.47129 6.5024 1.93061 8.05153 1.99259 9.63603C2.05457 11.2205 2.71461 12.7227 3.83979 13.84L10.0498 20.06C10.5698 20.5718 11.2702 20.8586 11.9998 20.8586C12.7294 20.8586 13.4298 20.5718 13.9498 20.06L20.1598 13.84C21.3274 12.6653 21.9827 11.0763 21.9827 9.42001C21.9827 7.76374 21.3274 6.17475 20.1598 5.00001ZM18.7498 12.46L12.5398 18.67C12.4691 18.7414 12.385 18.798 12.2923 18.8367C12.1996 18.8753 12.1002 18.8952 11.9998 18.8952C11.8994 18.8952 11.7999 18.8753 11.7072 18.8367C11.6146 18.798 11.5305 18.7414 11.4598 18.67L5.24979 12.43C4.46555 11.6284 4.0264 10.5515 4.0264 9.43001C4.0264 8.30855 4.46555 7.23167 5.24979 6.43001C6.04894 5.641 7.12676 5.19858 8.24979 5.19858C9.37281 5.19858 10.4506 5.641 11.2498 6.43001C11.3428 6.52374 11.4534 6.59814 11.5752 6.6489C11.6971 6.69967 11.8278 6.72581 11.9598 6.72581C12.0918 6.72581 12.2225 6.69967 12.3444 6.6489C12.4662 6.59814 12.5768 6.52374 12.6698 6.43001C13.4689 5.641 14.5468 5.19858 15.6698 5.19858C16.7928 5.19858 17.8706 5.641 18.6698 6.43001C19.4648 7.22116 19.9184 8.2922 19.9333 9.4137C19.9483 10.5352 19.5234 11.6179 18.7498 12.43V12.46Z" fill="#010012"/>
</svg>
