<svg width="110" height="48" viewBox="0 0 110 48" fill="none" xmlns="http://www.w3.org/2000/svg">
<path d="M108.582 16.8551V25.0615C108.583 25.7745 108.512 26.4858 108.37 27.1846C108.057 28.7247 107.405 30.1756 106.46 31.4314C105.855 32.2359 105.14 32.951 104.336 33.5558C103.08 34.5003 101.629 35.1528 100.089 35.4659C98.6881 35.749 97.2444 35.749 95.8431 35.4659C94.3031 35.1528 92.8523 34.5002 91.5963 33.5558C90.7921 32.9507 90.077 32.2356 89.4719 31.4314C88.0918 29.5948 87.347 27.3588 87.3501 25.0615V16.8551H91.5963V25.0615C91.5879 25.9033 91.7465 26.7384 92.0629 27.5185C92.3792 28.2987 92.8471 29.0084 93.4394 29.6066C94.0317 30.2048 94.7367 30.6797 95.5136 31.0038C96.2906 31.3279 97.1241 31.4948 97.9659 31.4948C98.8078 31.4948 99.6413 31.3279 100.418 31.0038C101.195 30.6797 101.9 30.2048 102.492 29.6066C103.085 29.0084 103.553 28.2987 103.869 27.5185C104.185 26.7384 104.344 25.9033 104.336 25.0615V16.8551H108.582Z" fill="#010012" stroke="#010012" stroke-width="2.24794" stroke-miterlimit="10"/>
<path d="M33.3185 22.9385C33.0056 21.3986 32.353 19.9479 31.4083 18.6923C30.8037 17.8872 30.0885 17.1714 29.2839 16.566C27.4466 15.1873 25.2115 14.4419 22.9143 14.4419C20.6172 14.4419 18.3821 15.1873 16.5447 16.566C15.7405 17.1713 15.0254 17.8867 14.4204 18.691C13.0417 20.5284 12.2964 22.7635 12.2964 25.0606C12.2964 27.3577 13.0417 29.5928 14.4204 31.4302C15.0254 32.2344 15.7406 32.9495 16.5447 33.5546C17.8006 34.4992 19.2511 35.1521 20.7909 35.466C22.1924 35.7491 23.6363 35.7491 25.0377 35.466C26.5776 35.1529 28.0282 34.5004 29.2839 33.5559C30.0882 32.9519 30.8034 32.2376 31.4083 31.434C32.3532 30.1782 33.0057 28.7273 33.3185 27.1872C33.6016 25.7859 33.6016 24.3422 33.3185 22.941V22.9385ZM28.9211 27.1847C28.3891 28.6955 27.3093 29.9514 25.8954 30.704C24.4815 31.4566 22.8366 31.651 21.2862 31.2486C19.7359 30.8463 18.3931 29.8765 17.5237 28.5313C16.6542 27.1861 16.3215 25.5635 16.5914 23.9847C16.8612 22.4059 17.714 20.9859 18.9808 20.0059C20.2477 19.0258 21.8364 18.5571 23.4323 18.6925C25.0283 18.8279 26.5153 19.5576 27.5989 20.7371C28.6826 21.9165 29.2839 23.4599 29.2839 25.0616C29.2841 25.7847 29.1614 26.5026 28.9211 27.1847Z" fill="#010012" stroke="#010012" stroke-width="2.24794" stroke-miterlimit="10"/>
<path d="M52.7164 22.9385C52.4036 21.3986 51.751 19.9479 50.8062 18.6923C50.2016 17.8872 49.4864 17.1714 48.6819 16.566C46.8445 15.1873 44.6094 14.4419 42.3123 14.4419C40.0151 14.4419 37.78 15.1873 35.9427 16.566C35.1385 17.1713 34.4234 17.8867 33.8183 18.691C32.4396 20.5284 31.6943 22.7635 31.6943 25.0606C31.6943 27.3577 32.4396 29.5928 33.8183 31.4302C34.4234 32.2344 35.1385 32.9495 35.9427 33.5546C37.1985 34.4992 38.6491 35.1521 40.1889 35.466C41.5903 35.7491 43.0342 35.7491 44.4357 35.466C45.9755 35.1529 47.4261 34.5004 48.6819 33.5559C49.4862 32.9519 50.2013 32.2376 50.8062 31.434C51.7511 30.1782 52.4037 28.7273 52.7164 27.1872C52.9995 25.7859 52.9995 24.3422 52.7164 22.941V22.9385ZM48.319 27.1847C47.787 28.6955 46.7072 29.9514 45.2933 30.704C43.8794 31.4566 42.2345 31.651 40.6842 31.2486C39.1338 30.8463 37.7911 29.8765 36.9216 28.5313C36.0522 27.1861 35.7194 25.5635 35.9893 23.9847C36.2592 22.4059 37.1119 20.9859 38.3788 20.0059C39.6456 19.0258 41.2343 18.5571 42.8303 18.6925C44.4262 18.8279 45.9132 19.5576 46.9969 20.7371C48.0805 21.9165 48.6819 23.4599 48.6819 25.0616C48.6831 25.7845 48.5614 26.5025 48.3222 27.1847H48.319Z" fill="#010012" stroke="#010012" stroke-width="2.24794" stroke-miterlimit="10"/>
<path d="M71.9874 22.9385C71.6746 21.3986 71.022 19.9479 70.0773 18.6923C69.4726 17.8872 68.7574 17.1714 67.9529 16.566C66.1155 15.1873 63.8804 14.4419 61.5833 14.4419C59.2861 14.4419 57.051 15.1873 55.2137 16.566C54.4095 17.1713 53.6944 17.8866 53.0893 18.691C51.7106 20.5284 50.9653 22.7635 50.9653 25.0606C50.9653 27.3577 51.7106 29.5928 53.0893 31.4302C53.6944 32.2344 54.4095 32.9495 55.2137 33.5546C56.4697 34.4987 57.9202 35.1512 59.4599 35.4647C60.8613 35.7478 62.3052 35.7478 63.7067 35.4647C65.2465 35.1516 66.6971 34.4991 67.9529 33.5546C68.7574 32.9498 69.4725 32.2347 70.0773 31.4302C71.0221 30.1744 71.6747 28.7235 71.9874 27.1834C72.2705 25.7822 72.2705 24.3384 71.9874 22.9372V22.9385ZM67.59 27.1847C67.058 28.6954 65.9782 29.9514 64.5643 30.704C63.1504 31.4566 61.5055 31.651 59.9552 31.2486C58.4048 30.8462 57.0621 29.8765 56.1926 28.5313C55.3232 27.1861 54.9905 25.5635 55.2603 23.9847C55.5302 22.4059 56.3829 20.9859 57.6498 20.0059C58.9166 19.0258 60.5053 18.5571 62.1013 18.6925C63.6973 18.8279 65.1842 19.5576 66.2679 20.737C67.3515 21.9165 67.9529 23.4599 67.9529 25.0616C67.9531 25.7847 67.8304 26.5026 67.59 27.1847Z" fill="#010012" stroke="#010012" stroke-width="2.24794" stroke-miterlimit="10"/>
<path d="M91.3844 22.9385C91.0716 21.3986 90.419 19.9479 89.4742 18.6923C88.8696 17.8872 88.1544 17.1714 87.3499 16.566C85.5125 15.1873 83.2774 14.4419 80.9803 14.4419C78.6831 14.4419 76.448 15.1873 74.6106 16.566C73.8065 17.1713 73.0913 17.8866 72.4863 18.691C71.1076 20.5284 70.3623 22.7635 70.3623 25.0606C70.3623 27.3577 71.1076 29.5928 72.4863 31.4302C73.0914 32.2344 73.8065 32.9495 74.6106 33.5546C75.8666 34.4987 77.3172 35.1512 78.8568 35.4647C80.2583 35.7478 81.7022 35.7478 83.1037 35.4647C84.6435 35.1516 86.0941 34.4991 87.3499 33.5546C88.1543 32.9498 88.8695 32.2347 89.4742 31.4302C90.4191 30.1744 91.0717 28.7235 91.3844 27.1834C91.6675 25.7822 91.6675 24.3384 91.3844 22.9372V22.9385ZM86.987 27.1847C86.455 28.6954 85.3752 29.9514 83.9613 30.704C82.5474 31.4566 80.9025 31.651 79.3522 31.2486C77.8018 30.8462 76.459 29.8765 75.5896 28.5313C74.7202 27.1861 74.3874 25.5635 74.6573 23.9847C74.9271 22.4059 75.7799 20.9859 77.0468 20.0059C78.3136 19.0258 79.9023 18.5571 81.4983 18.6925C83.0942 18.8279 84.5812 19.5576 85.6649 20.737C86.7485 21.9165 87.3499 23.4599 87.3499 25.0616C87.3501 25.7847 87.2273 26.5026 86.987 27.1847Z" fill="#010012" stroke="#010012" stroke-width="2.24794" stroke-miterlimit="10"/>
<path d="M14.1572 31.434V35.466C12.6144 35.7822 11.0206 35.7509 9.49137 35.3745C7.96216 34.9981 6.53594 34.2859 5.31619 33.2898C4.09645 32.2936 3.11379 31.0383 2.43953 29.6151C1.76526 28.1919 1.4163 26.6364 1.41797 25.0616V1.70557H5.66417V25.0616C5.66368 25.8983 5.82808 26.727 6.14799 27.5002C6.46791 28.2734 6.93705 28.976 7.52862 29.5678C8.12019 30.1596 8.82258 30.629 9.59566 30.9492C10.3687 31.2694 11.1973 31.4342 12.0341 31.434H14.1572Z" fill="#010012" stroke="#010012" stroke-width="2.24794" stroke-miterlimit="10"/>
<path d="M23.1793 31.3602H12.3389V35.7677H23.1793V31.3602Z" fill="#010012"/>
<path d="M55.0519 25.0615H50.8057V46.2938H55.0519V25.0615Z" fill="#010012" stroke="#010012" stroke-width="2.24794" stroke-miterlimit="10"/>
<path d="M74.1749 3.02856H69.9287V24.2608H74.1749V3.02856Z" fill="#010012" stroke="#010012" stroke-width="2.24794" stroke-miterlimit="10"/>
<path d="M104.336 16.8551V35.677C104.336 36.5136 104.172 37.3421 103.852 38.1151C103.532 38.8882 103.063 39.5905 102.471 40.1821C101.879 40.7737 101.177 41.2429 100.404 41.5629C99.631 41.8828 98.8025 42.0473 97.9659 42.0469H95.8428V46.0789C97.3856 46.3952 98.9794 46.3641 100.509 45.9877C102.038 45.6113 103.464 44.8992 104.684 43.903C105.904 42.9067 106.886 41.6514 107.561 40.2282C108.235 38.8049 108.584 37.2494 108.582 35.6745V16.8551H104.336Z" fill="#010012" stroke="#010012" stroke-width="2.24794" stroke-miterlimit="10"/>
</svg>
