<svg width="150" height="150" viewBox="0 0 150 150" fill="none" xmlns="http://www.w3.org/2000/svg">
<path d="M92 54.9375L65.1875 81.8125L54.875 71.5C54.3147 70.8457 53.6252 70.3144 52.8498 69.9392C52.0744 69.5641 51.2299 69.3533 50.3691 69.32C49.5084 69.2868 48.65 69.4318 47.848 69.746C47.046 70.0602 46.3176 70.5368 45.7085 71.1459C45.0994 71.755 44.6228 72.4835 44.3085 73.2855C43.9943 74.0875 43.8493 74.9458 43.8825 75.8066C43.9158 76.6673 44.1266 77.5119 44.5017 78.2873C44.8769 79.0627 45.4083 79.7522 46.0625 80.3125L60.75 95.0625C61.334 95.6418 62.0266 96.1 62.7881 96.4111C63.5496 96.7221 64.365 96.8798 65.1875 96.875C66.8272 96.8681 68.3984 96.2172 69.5625 95.0625L100.813 63.8125C101.398 63.2315 101.863 62.5402 102.181 61.7786C102.498 61.017 102.661 60.2001 102.661 59.375C102.661 58.5499 102.498 57.733 102.181 56.9714C101.863 56.2098 101.398 55.5185 100.813 54.9375C99.6415 53.7734 98.0574 53.12 96.4063 53.12C94.7551 53.12 93.171 53.7734 92 54.9375ZM75 12.5C62.6387 12.5 50.555 16.1656 40.2769 23.0332C29.9988 29.9007 21.988 39.6619 17.2576 51.0823C12.5271 62.5027 11.2894 75.0693 13.7009 87.1931C16.1125 99.317 22.0651 110.453 30.8059 119.194C39.5466 127.935 50.6831 133.888 62.8069 136.299C74.9307 138.711 87.4974 137.473 98.9177 132.742C110.338 128.012 120.099 120.001 126.967 109.723C133.834 99.4451 137.5 87.3613 137.5 75C137.5 66.7924 135.883 58.6651 132.743 51.0823C129.602 43.4994 124.998 36.6095 119.194 30.8058C113.391 25.0022 106.501 20.3984 98.9177 17.2575C91.3349 14.1166 83.2076 12.5 75 12.5ZM75 125C65.111 125 55.444 122.068 47.2215 116.573C38.9991 111.079 32.5904 103.27 28.8061 94.1342C25.0217 84.9979 24.0315 74.9445 25.9608 65.2455C27.89 55.5464 32.6521 46.6373 39.6447 39.6447C46.6373 32.652 55.5465 27.89 65.2455 25.9607C74.9446 24.0315 84.9979 25.0216 94.1342 28.806C103.271 32.5904 111.079 38.999 116.574 47.2215C122.068 55.444 125 65.1109 125 75C125 88.2608 119.732 100.979 110.355 110.355C100.979 119.732 88.2609 125 75 125Z" fill="#C53735"/>
</svg>
